<svg xmlns="http://www.w3.org/2000/svg" style="display: none;">
  <symbol id="icon-logo" viewBox="0 0 512 512">
    <circle cx="255.997" cy="255.997" r="144.824" fill="#005BFF"/><path d="M256 111.18c-5.242 0-10.418.286-15.516.828 72.685 7.743 129.303 69.252 129.303 143.991s-56.619 136.249-129.303 143.992c5.098.544 10.273.828 15.516.828 79.982 0 144.82-64.838 144.82-144.82S335.983 111.18 256 111.18z" fill="#0341B6"/><path d="M256 408.557c-84.12 0-152.557-68.437-152.557-152.557 0-34.564 11.881-68.423 33.454-95.34a7.735 7.735 0 0 1 10.875-1.199 7.737 7.737 0 0 1 1.199 10.876C129.309 194.87 118.916 224.49 118.916 256c0 75.588 61.496 137.084 137.084 137.084S393.084 331.589 393.084 256 331.588 118.916 256 118.916c-31.09 0-60.4 10.146-84.762 29.339a7.74 7.74 0 0 1-10.866-1.289 7.739 7.739 0 0 1 1.288-10.866c27.119-21.365 59.741-32.658 94.339-32.658 84.12 0 152.557 68.437 152.557 152.557S340.12 408.557 256 408.557zm0-351.709a7.736 7.736 0 0 1-7.737-7.737V7.737C248.263 3.463 251.727 0 256 0s7.737 3.463 7.737 7.737v41.375A7.736 7.736 0 0 1 256 56.848zm-103.437 27.72a7.732 7.732 0 0 1-6.707-3.869l-20.687-35.831a7.737 7.737 0 0 1 13.401-7.737l20.687 35.831a7.737 7.737 0 0 1-6.694 11.606zm-75.74 75.726a7.696 7.696 0 0 1-3.861-1.038L37.13 138.569a7.738 7.738 0 0 1 7.737-13.401l35.832 20.687a7.738 7.738 0 0 1-3.876 14.439zM49.112 263.737H7.737C3.464 263.737 0 260.274 0 256s3.464-7.737 7.737-7.737h41.376a7.737 7.737 0 0 1-.001 15.474zm-8.107 124.132a7.737 7.737 0 0 1-3.875-14.438l35.832-20.687a7.738 7.738 0 0 1 7.737 13.401l-35.832 20.687a7.71 7.71 0 0 1-3.862 1.037zm90.857 90.871a7.738 7.738 0 0 1-6.693-11.607l20.687-35.832a7.738 7.738 0 0 1 13.401 7.737L138.57 474.87a7.736 7.736 0 0 1-6.708 3.87zM256 512a7.736 7.736 0 0 1-7.737-7.737v-41.375c0-4.274 3.464-7.737 7.737-7.737s7.737 3.463 7.737 7.737v41.375A7.736 7.736 0 0 1 256 512zm124.138-33.26a7.732 7.732 0 0 1-6.707-3.869l-20.687-35.832a7.737 7.737 0 0 1 13.401-7.737l20.687 35.832a7.737 7.737 0 0 1-6.694 11.606zm90.857-90.871a7.696 7.696 0 0 1-3.861-1.038l-35.832-20.687a7.738 7.738 0 0 1 7.737-13.401l35.832 20.687a7.738 7.738 0 0 1-3.876 14.439zm33.268-124.132h-41.376c-4.273 0-7.737-3.463-7.737-7.737s3.464-7.737 7.737-7.737h41.376c4.273 0 7.737 3.463 7.737 7.737s-3.464 7.737-7.737 7.737zm-69.086-103.443a7.737 7.737 0 0 1-3.875-14.438l35.832-20.687a7.738 7.738 0 0 1 7.737 13.401l-35.832 20.687a7.71 7.71 0 0 1-3.862 1.037zm-75.74-75.726a7.738 7.738 0 0 1-6.693-11.607l20.687-35.831a7.738 7.738 0 0 1 13.401 7.737l-20.687 35.831a7.737 7.737 0 0 1-6.708 3.87z"/>
  </symbol>

  <symbol id="icon-search" viewBox="0 0 485.6 485.6">
    <path d="m447.5 477.85 30.3-30.3c4-4 4-10.4 0-14.4l-149.2-149.2-44.7 44.7 149.2 149.2c4 4 10.4 4 14.4 0z" fill="#005bff"/><path d="m163.4 67.05c-53.2 0-96.5 43.3-96.5 96.5 0 5 4.1 9.1 9.1 9.1s9.1-4.1 9.1-9.1c0-43.2 35.1-78.3 78.3-78.3 5 0 9.1-4.1 9.1-9.1 0-5.1-4.1-9.1-9.1-9.1z"/><path d="m335 277.55c-3.5-3.5-9.3-3.5-12.8 0l-15.9 15.9-21.1-21.1c25.9-28.9 41.7-67.1 41.7-108.9 0-90.1-73.3-163.4-163.4-163.4s-163.5 73.3-163.5 163.4 73.3 163.4 163.4 163.4c41.8 0 79.9-15.8 108.9-41.7l21.1 21.1-15.9 15.9c-1.7 1.7-2.7 4-2.7 6.4s1 4.7 2.7 6.4l141.9 141.9c5.6 5.6 13 8.7 20.9 8.7s15.3-3.1 20.9-8.7l15.7-15.7c5.6-5.6 8.7-13 8.7-20.9s-3.1-15.3-8.7-20.9zm-316.8-114.1c0-80.1 65.2-145.3 145.3-145.3s145.3 65.2 145.3 145.3-65.2 145.3-145.3 145.3-145.3-65.2-145.3-145.3zm445.9 285-15.7 15.7c-2.2 2.2-5 3.4-8.1 3.4s-5.9-1.2-8.1-3.4l-135.5-135.5 31.9-31.9 135.5 135.5c2.2 2.2 3.4 5 3.4 8.1s-1.3 6-3.4 8.1z"/>
  </symbol>

  <symbol id="icon-close" viewBox="0 0 294.843 294.843">
    <path d="M147.421 0C66.133 0 0 66.133 0 147.421s66.133 147.421 147.421 147.421c38.287 0 74.567-14.609 102.159-41.136a6 6 0 1 0-8.316-8.65c-25.345 24.367-58.672 37.786-93.842 37.786C72.75 282.843 12 222.093 12 147.421S72.75 12 147.421 12s135.421 60.75 135.421 135.421c0 16.842-3.052 33.273-9.071 48.835a6 6 0 0 0 11.193 4.329c6.555-16.949 9.879-34.836 9.879-53.165C294.843 66.133 228.71 0 147.421 0z" data-original="#000000" class="active-path" data-old_color="#7F1515" fill="#005BFF"/><path d="M167.619 160.134a6 6 0 0 0-8.395 8.575l47.236 46.236a5.981 5.981 0 0 0 4.197 1.712 6.001 6.001 0 0 0 4.198-10.288l-47.236-46.235zm-42.441-26.471c1.171 1.171 2.707 1.757 4.243 1.757s3.071-.586 4.243-1.757a6 6 0 0 0 0-8.485L88.428 79.942a6 6 0 0 0-8.485 8.485l45.235 45.236zM214.9 79.942a6 6 0 0 0-8.485 0L79.942 206.415a6 6 0 1 0 8.486 8.485L214.9 88.428a6.001 6.001 0 0 0 0-8.486z" data-original="#000000" class="active-path" data-old_color="#7F1515" fill="#005BFF"/>
  </symbol>

  <symbol id="icon-arrow" viewBox="0 0 512 512">
    <path d="m31.524 184.754 426.074-168.577c24.651-9.747 49.037 14.639 39.29 39.29l-168.576 426.075c-11.276 28.507-52.931 24.108-58.013-6.144l-29.834-177.944c-2.136-12.743-12.111-22.717-24.854-24.853l-68.846-11.542-67.646-11.352-41.452-6.94c-30.251-5.083-34.65-46.737-6.143-58.013z" fill="#005bff"/><g fill="#201f2e"><path d="m499.343 12.659c-12.293-12.293-29.971-15.956-46.136-9.561l-426.069 168.574c-18.133 7.174-28.941 25.024-26.89 44.418 2.049 19.391 16.347 34.586 35.579 37.812.001 0 .003 0 .004.001l41.452 6.95c.708.119 1.411.176 2.106.176 6.063 0 11.417-4.375 12.452-10.553 1.154-6.886-3.492-13.404-10.376-14.558l-41.452-6.95h-.001c-9.74-1.633-13.937-9.097-14.619-15.537s1.865-14.616 11.049-18.25l426.067-168.572c6.742-2.669 13.827-1.2 18.956 3.928 5.127 5.127 6.595 12.213 3.928 18.955l-168.575 426.07c-3.634 9.185-11.825 11.723-18.25 11.048-6.44-.681-13.903-4.878-15.537-14.62l-29.838-177.955c-3.026-18.045-17.184-32.203-35.229-35.229l-68.852-11.544c-6.887-1.152-13.404 3.49-14.558 10.376s3.492 13.404 10.376 14.558l68.852 11.544c7.414 1.243 13.232 7.06 14.475 14.475l29.838 177.954c3.225 19.233 18.421 33.532 37.814 35.582 1.574.166 3.136.248 4.685.248 17.534-.001 33.14-10.476 39.733-27.138l168.576-426.068c6.396-16.165 2.732-33.843-9.56-46.134z"/><path d="m291.674 238.206 98.132-98.132c4.937-4.937 4.937-12.941 0-17.879-4.937-4.937-12.941-4.937-17.879 0l-98.132 98.132c-4.937 4.937-4.937 12.941 0 17.879 2.469 2.469 5.704 3.703 8.939 3.703s6.472-1.235 8.94-3.703z"/></g>
  </symbol>

  <symbol id="icon-rain" viewBox="0 0 100 100">
    <path fill-rule="evenodd" clip-rule="evenodd" d="M63.943 64.941V60.56a7.988 7.988 0 0 0 4-6.92 8 8 0 0 0-8-7.999c-1.6 0-3.082.48-4.333 1.291-1.231-5.317-5.974-9.29-11.665-9.29-6.626 0-11.998 5.372-11.998 11.998 0 3.55 1.551 6.728 4 8.925v4.916c-4.777-2.768-8-7.922-8-13.841 0-8.835 7.163-15.997 15.998-15.997 6.004 0 11.229 3.311 13.965 8.203.664-.113 1.338-.205 2.033-.205 6.627 0 11.999 5.372 11.999 11.999 0 5.223-3.341 9.653-7.999 11.301zm-21.997-11.3a2 2 0 0 1 1.999 2v15.998a2 2 0 1 1-3.999 0V55.641a2 2 0 0 1 2-2zm7.999 4a2 2 0 0 1 2 2v15.998a2 2 0 0 1-4 0V59.641a2 2 0 0 1 2-2zm7.999-4a2 2 0 0 1 1.999 2v15.998a2 2 0 1 1-3.999 0V55.641a2 2 0 0 1 2-2z"/>
  </symbol>

  <symbol id="icon-clear-day" viewBox="0 0 100 100">
    <path fill-rule="evenodd" clip-rule="evenodd" d="M71.997 51.999h-3.998a2 2 0 1 1 0-3.999h3.998a2 2 0 0 1 0 3.999zm-7.855-13.311a2 2 0 1 1-2.828-2.828l2.828-2.828a2 2 0 1 1 2.828 2.828l-2.828 2.828zm-14.141 23.31c-6.627 0-12-5.372-12-11.998 0-6.627 5.372-11.999 12-11.999 6.627 0 11.998 5.372 11.998 11.999 0 6.626-5.371 11.998-11.998 11.998zm0-19.997A8 8 0 1 0 50 58a8 8 0 0 0 .001-15.999zm0-7.999a2 2 0 0 1-2-2v-3.999a2 2 0 0 1 4 0v3.999c0 1.104-.897 2-2 2zM35.86 38.688l-2.828-2.828a2 2 0 1 1 2.828-2.828l2.828 2.828a2 2 0 1 1-2.828 2.828zM34.002 50a2 2 0 0 1-2 1.999h-4a1.999 1.999 0 0 1 0-3.999h4a2 2 0 0 1 2 2zm1.858 11.312a2 2 0 1 1 2.828 2.828l-2.828 2.828a2 2 0 1 1-2.828-2.828l2.828-2.828zm14.141 4.686a2 2 0 0 1 2 1.999v4a2 2 0 0 1-4 0v-4a2 2 0 0 1 2-1.999zm14.141-4.686l2.828 2.828a2 2 0 1 1-2.828 2.828l-2.828-2.828a2 2 0 1 1 2.828-2.828z"/>
  </symbol>

  <symbol id="icon-clear-night" viewBox="0 0 100 100">
    <path fill-rule="evenodd" clip-rule="evenodd" d="M50 61.998c-6.627 0-11.999-5.372-11.999-11.998 0-6.627 5.372-11.999 11.999-11.999.755 0 1.491.078 2.207.212a7.988 7.988 0 0 0-.208 1.788 8 8 0 0 0 8 7.999c.615 0 1.212-.076 1.788-.208.133.717.211 1.452.211 2.208 0 6.626-5.372 11.998-11.998 11.998zm-1.788-19.79c-3.556.813-6.211 3.989-6.211 7.792A8 8 0 0 0 50 57.999c3.802 0 6.978-2.655 7.791-6.211a11.998 11.998 0 0 1-9.579-9.58z"/>
  </symbol>

  <symbol id="icon-snow" viewBox="0 0 100 100">
    <path fill-rule="evenodd" clip-rule="evenodd" d="M63.999 64.943v-4.381a7.993 7.993 0 0 0 3.999-6.922 8 8 0 0 0-7.999-7.998c-1.6 0-3.083.48-4.333 1.291-1.231-5.317-5.974-9.291-11.665-9.291-6.627 0-11.998 5.373-11.998 12 0 3.549 1.55 6.729 4 8.924v4.916c-4.777-2.768-8-7.922-8-13.84 0-8.836 7.163-15.999 15.998-15.999 6.004 0 11.229 3.312 13.965 8.204.664-.113 1.337-.205 2.033-.205 6.627 0 11.999 5.373 11.999 11.998 0 5.223-3.343 9.653-7.999 11.303zm-21.998-7.302a2 2 0 1 1 0 4 2 2 0 0 1 0-4zm0 8a2 2 0 1 1 .001 3.999 2 2 0 0 1-.001-3.999zm8-4a2 2 0 1 1 0 4 2 2 0 0 1 0-4zm0 7.998A2 2 0 1 1 50 73.64 2 2 0 0 1 50 69.64zm7.998-11.998a2 2 0 1 1 0 4 2 2 0 0 1 0-4zm0 8A2 2 0 1 1 58 69.64 2 2 0 0 1 58 65.64z"/>
  </symbol>

  <symbol id="icon-sleet" viewBox="0 0 100 100">
    <path fill-rule="evenodd" clip-rule="evenodd" d="M63.999 64.941V60.56a7.987 7.987 0 0 0 3.999-6.92A8 8 0 0 0 60 45.641c-1.601 0-3.084.48-4.334 1.291-1.231-5.317-5.974-9.29-11.665-9.29-6.626 0-11.998 5.372-11.998 11.998 0 3.55 1.55 6.728 3.999 8.925v4.916c-4.776-2.768-7.998-7.922-7.998-13.841 0-8.835 7.162-15.997 15.997-15.997 6.004 0 11.229 3.311 13.966 8.203.663-.113 1.336-.205 2.033-.205 6.626 0 11.998 5.372 11.998 11.999 0 5.223-3.342 9.653-7.999 11.301zm-21.997.698c-1.104 0-1-.895-1-1.998v-8c0-1.104-.104-2 1-2s1 .896 1 2v8c0 1.103.104 1.998-1 1.998zm0 4a2 2 0 1 1-.002 4 2 2 0 0 1 .002-4zm7.999 0c-1.104 0-1-.895-1-2v-7.998c0-1.105-.104-2 1-2s1 .895 1 2v7.998c0 1.105.104 2-1 2zm0 4a2 2 0 1 1 0 3.998 2 2 0 0 1 0-3.998zm7.999-8c-1.104 0-1-.895-1-1.998v-8c0-1.104-.104-2 1-2s1 .896 1 2v8c0 1.103.104 1.998-1 1.998zm0 4a2 2 0 1 1-.001 4.001A2 2 0 0 1 58 69.64z"/>
  </symbol>

  <symbol id="icon-wind" viewBox="0 0 100 100">
    <path clip-rule="evenodd" d="M65.999 52h-3a2 2 0 1 1 0-3.999h3a2 2 0 0 0 0-3.999 2 2 0 1 1 .402-3.959c3.121.211 5.596 2.783 5.596 5.959A5.998 5.998 0 0 1 65.999 52zm-10-3.999H34.002a2 2 0 0 0 0 3.999h21.997a6 6 0 0 1 6 6c0 3.176-2.475 5.748-5.596 5.959A2 2 0 1 0 55.999 56H34.002a6 6 0 0 1-5.999-5.999c0-3.175 2.475-5.747 5.596-5.959a2.07 2.07 0 0 1 .403-.04h21.997a2 2 0 0 0 0-4 2 2 0 1 1 .404-3.959c3.121.211 5.596 2.783 5.596 5.959a6 6 0 0 1-6 5.999z" fill-rule="evenodd"/>
  </symbol>

  <symbol id="icon-fog" viewBox="0 0 100 100">
    <path fill-rule="evenodd" clip-rule="evenodd" d="M69.998 65.641H30.003a2 2 0 0 1 0-4h39.995a2 2 0 0 1 0 4zm0-8H30.003a2 2 0 0 1 0-4h39.995a2 2 0 0 1 0 4zm-9.999-11.998c-1.601 0-3.083.48-4.333 1.291-1.232-5.317-5.974-9.291-11.665-9.291-6.626 0-11.998 5.373-11.998 12h-4c0-8.835 7.163-15.999 15.998-15.999 6.004 0 11.229 3.312 13.965 8.204.664-.113 1.337-.205 2.033-.205 5.222 0 9.652 3.342 11.301 8h-4.381a7.987 7.987 0 0 0-6.92-4zM30.003 69.639h39.995a2 2 0 0 1 0 4H30.003a2 2 0 0 1 0-4z"/>
  </symbol>

  <symbol id="icon-cloudy" viewBox="0 0 100 100">
    <path fill-rule="evenodd" clip-rule="evenodd" d="M43.945 65.639c-8.835 0-15.998-7.162-15.998-15.998 0-8.836 7.163-15.998 15.998-15.998 6.004 0 11.229 3.312 13.965 8.203.664-.113 1.338-.205 2.033-.205 6.627 0 11.999 5.373 11.999 12 0 6.625-5.372 11.998-11.999 11.998H43.945zm15.998-4a8 8 0 1 0 0-15.998c-1.6 0-3.082.481-4.333 1.291-1.231-5.316-5.974-9.29-11.665-9.29-6.626 0-11.998 5.372-11.998 11.999 0 6.626 5.372 11.998 11.998 11.998h15.998z"/>
  </symbol>

  <symbol id="icon-partly-cloudy-day" viewBox="0 0 100 100">
    <path fill-rule="evenodd" clip-rule="evenodd" d="M79.941 43.641h-4a2 2 0 0 1 0-3.998h4a2 2 0 1 1 0 3.998zm-7.857-13.312a2 2 0 0 1-2.828-2.827l2.828-2.828a2 2 0 1 1 2.828 2.828l-2.828 2.827zm-2.947 15.607a11.949 11.949 0 0 1 2.806 7.705c0 6.625-5.372 11.998-11.999 11.998H43.946c-8.835 0-15.998-7.162-15.998-15.998s7.163-15.998 15.998-15.998c1.572 0 3.09.232 4.523.654 2.195-2.827 5.618-4.654 9.475-4.654 6.627 0 11.999 5.373 11.999 11.998a11.983 11.983 0 0 1-.806 4.295zm-37.19 3.705c0 6.627 5.371 11.998 11.998 11.998h15.998a8 8 0 0 0 0-15.998c-1.6 0-3.083.482-4.333 1.291-1.231-5.316-5.974-9.289-11.665-9.289-6.627 0-11.998 5.371-11.998 11.998zm25.996-15.998a7.972 7.972 0 0 0-5.662 2.349 16.113 16.113 0 0 1 5.629 5.854c.664-.113 1.337-.205 2.033-.205 2.125 0 4.119.559 5.85 1.527.096-.494.15-1.004.15-1.527a8 8 0 0 0-8-7.998zm0-8a1.999 1.999 0 0 1-1.999-1.999v-3.999a2 2 0 1 1 3.999 0v3.999a1.998 1.998 0 0 1-2 1.999zm-14.14 4.686l-2.827-2.827a2 2 0 0 1 2.827-2.828l2.828 2.828a1.998 1.998 0 1 1-2.828 2.827z"/>
  </symbol>

  <symbol id="icon-partly-cloudy-night" viewBox="0 0 100 100">
    <path fill-rule="evenodd" clip-rule="evenodd" d="M69.763 46.758a11.936 11.936 0 0 1 2.179 6.883c0 6.625-5.371 11.998-11.998 11.998H43.946c-8.836 0-15.998-7.162-15.998-15.998s7.162-15.998 15.998-15.998c2.002 0 3.914.375 5.68 1.047 1.635-4.682 6.078-8.047 11.318-8.047.755 0 1.491.078 2.207.212a8.04 8.04 0 0 0-.207 1.788 7.998 7.998 0 0 0 7.998 7.999 7.99 7.99 0 0 0 1.789-.208c.133.717.211 1.453.211 2.208a11.952 11.952 0 0 1-3.179 8.116zm-37.816 2.883c0 6.627 5.371 11.998 11.998 11.998h15.998a8 8 0 0 0 0-15.998c-1.6 0-3.083.482-4.334 1.291-1.231-5.316-5.973-9.29-11.664-9.29-6.627 0-11.998 5.372-11.998 11.999zm19.549-14.096h0zm7.659-4.695c-2.9.664-5.175 2.91-5.925 5.775a16.08 16.08 0 0 1 4.68 5.22c.664-.113 1.337-.205 2.033-.205 2.618 0 5.033.85 7.005 2.271a7.993 7.993 0 0 0 1.786-3.482 11.997 11.997 0 0 1-9.579-9.579z"/>
  </symbol>

  <symbol id="icon-thunderstorm" viewBox="0 0 100 100">
    <path fill-rule="evenodd" clip-rule="evenodd" d="M59.999 65.641h-1.062l3.585-4.412c3.181-1.057 5.477-4.053 5.477-7.588A7.998 7.998 0 0 0 60 45.643c-1.601 0-3.083.48-4.333 1.29-1.232-5.316-5.974-9.29-11.665-9.29-6.626 0-11.998 5.372-11.998 12 0 5.446 3.632 10.038 8.604 11.504l-1.349 3.777c-6.52-2.021-11.255-8.098-11.255-15.282 0-8.835 7.163-15.999 15.998-15.999 6.004 0 11.229 3.312 13.965 8.204.664-.114 1.337-.205 2.033-.205 6.627 0 11.999 5.371 11.999 11.998s-5.373 12.001-12 12.001zm-11.998-14h9.998l-5.999 10h6.999L46.001 77.639l3.6-11.998h-6.6l5-14z"/>
  </symbol>

  <symbol id="icon-tornado" viewBox="0 0 100 100">
    <path fill-rule="evenodd" clip-rule="evenodd" d="M68.866 36.459H30.871a2 2 0 0 1 0-3.999h37.995a2 2 0 0 1 0 3.999zm-35.995 4h29.996a2 2 0 0 1 0 3.999H32.871a2 2 0 0 1 0-3.999zm11.998 7.999h21.998a2 2 0 0 1 0 3.999H44.869a2 2 0 0 1 0-3.999zm2 15.998h5.999a2 2 0 0 1 0 3.999h-5.999a2 2 0 0 1 0-3.999zm1-6a2 2 0 0 1 2-1.999h13.998a2 2 0 0 1 0 3.999H49.869a2 2 0 0 1-2-2z"/>
  </symbol>

  <symbol id="icon-compass" viewBox="-3 -3 20.258 20.258">
    <path id="location-path" d="M6.283 12.445c.349 1.049 1.011 1.086 1.478.086L13.07 1.156c.467-1.002.034-1.434-.967-.967L.727 5.497c-1.001.467-.963 1.129.085 1.479l4.103 1.367 1.368 4.102z"/>
  </symbol>
</svg>
